<svg xmlns="http://www.w3.org/2000/svg" viewBox="0 0 512 512" role="img" aria-label="borhane.xyz">
  <rect width="512" height="512" rx="112" fill="#7A6CE8"/>
  <g fill="#25281F" data-source-font="Redaction 35 Bold" data-spacing="natural">
    <path d="M245 420V385H210V455H280V490H490V455H525V420H560V140H525V105H490V70H455V35H420V0H70V665H0V700H140V735H210V455H175V385H210V70H245V35H350V70H385V105H420V385H385V420Z" transform="translate(92.125 384.250) scale(0.407143 -0.407143)"/>
    <path d="M35 525H210V350H35ZM140 -70V-105H105V-70H140V0H70V35H35V105H70V140H175V105H210V0H175V-70Z" transform="translate(334.375 384.250) scale(0.407143 -0.407143)"/>
  </g>
</svg>
