<svg xmlns="http://www.w3.org/2000/svg" viewBox="0 0 512 512" role="img" aria-label="borhane.xyz">
  <rect width="512" height="512" rx="112" fill="#7A6CE8"/>
  <g fill="#25281F" data-source-font="Redaction 35 Regular">
    <path d="M140 35H175V0H385V35H455V70H490V140H525V350H490V420H455V455H385V490H280V455H210V420H175V735H140V700H35V665H70V0H140ZM175 35V385H245V420H350V385H385V315H420V105H385V70H350V35Z" transform="translate(125.937 379.720) scale(0.303429 -0.303429)"/>
    <path d="M70 490V350H175V490ZM105 -105H140V-70H175V105H70V0H140V-70H105V-105H70V-140H105Z" transform="translate(285.743 379.720) scale(0.303429 -0.303429)"/>
  </g>
</svg>
