<svg xmlns="http://www.w3.org/2000/svg" viewBox="0 0 512 512" role="img" aria-label="borhane.xyz">
  <rect width="512" height="512" rx="112" fill="#7A6CE8"/>
  <g fill="#25281F">
    <path d="M79 740H188V428H194Q217 475 255.0 501.5Q293 528 350 528Q441 528 495.0 460.0Q549 392 549 258Q549 124 495.0 56.0Q441 -12 350 -12Q293 -12 255.0 14.5Q217 41 194 88H188V0H79ZM305 77Q367 77 400.5 115.0Q434 153 434 216V300Q434 363 400.5 401.0Q367 439 305 439Q281 439 260.0 433.0Q239 427 223.0 415.0Q207 403 197.5 385.5Q188 368 188 344V172Q188 148 197.5 130.5Q207 113 223.0 101.0Q239 89 260.0 83.0Q281 77 305 77Z" transform="translate(81.000 378.740) scale(0.300000 -0.300000)"/>
    <path d="M244 152H399L275 -145H190ZM300 362Q252 362 232.5 382.0Q213 402 213 431V457Q213 486 232.5 506.0Q252 526 300 526Q348 526 367.5 506.0Q387 486 387 457V431Q387 402 367.5 382.0Q348 362 300 362Z" transform="translate(251.000 378.740) scale(0.300000 -0.300000)"/>
  </g>
</svg>
